<?xml version="1.0" standalone="no"?><!DOCTYPE svg PUBLIC "-//W3C//DTD SVG 1.1//EN" "http://www.w3.org/Graphics/SVG/1.1/DTD/svg11.dtd"><svg t="1657867933533" class="icon" viewBox="0 0 1024 1024" version="1.1" xmlns="http://www.w3.org/2000/svg" p-id="16436" xmlns:xlink="http://www.w3.org/1999/xlink" width="200" height="200"><defs><style type="text/css">@font-face { font-family: feedback-iconfont; src: url("//at.alicdn.com/t/font_1031158_u69w8yhxdu.woff2?t=1630033759944") format("woff2"), url("//at.alicdn.com/t/font_1031158_u69w8yhxdu.woff?t=1630033759944") format("woff"), url("//at.alicdn.com/t/font_1031158_u69w8yhxdu.ttf?t=1630033759944") format("truetype"); }
</style></defs><path d="M862.08 268.586667l-256-256A42.666667 42.666667 0 0 0 576 0H192a42.666667 42.666667 0 0 0-42.666667 42.666667v938.666666a42.666667 42.666667 0 0 0 42.666667 42.666667h640a42.666667 42.666667 0 0 0 42.666667-42.666667V298.666667a42.666667 42.666667 0 0 0-12.586667-30.08zM618.666667 145.706667L729.386667 256H618.666667zM234.666667 938.666667V85.333333h298.666666v213.333334a42.666667 42.666667 0 0 0 42.666667 42.666666h213.333333v597.333334z" fill="#3A3A3A" p-id="16437"></path><path d="M362.666667 586.666667h192a32 32 0 0 0 0-64h-192a32 32 0 0 0 0 64zM661.333333 650.666667H362.666667a32 32 0 0 0 0 64h298.666666a32 32 0 0 0 0-64zM661.333333 778.666667H362.666667a32 32 0 0 0 0 64h298.666666a32 32 0 0 0 0-64z" fill="#3A3A3A" p-id="16438"></path></svg>